# Max2Obj Version 4.0 Mar 10th, 2001
#
# object default to come ...
#
v  159.420425 240.967285 -11.505105
v  159.420425 240.967285 11.505110
v  159.420425 -240.967285 -11.505121
v  159.420425 -240.967285 11.505094
# 4 vertices

vt  0.000001 0.375000 -0.000046
vt  1.000000 0.375000 -0.000046
vt  0.999999 0.625000 0.000046
vt  0.000000 0.625000 0.000046
# 4 texture vertices

vn  1.000000 0.000000 -0.000000
vn  1.000000 0.000000 -0.000000
vn  1.000000 0.000000 -0.000000
vn  1.000000 0.000000 -0.000000
# 4 vertex normals

g default
s 65536
f 1/3/1 2/4/2 4/1/4 3/2/3
# 1 faces

g
